<svg width="360" height="267" viewBox="0 0 360 267" fill="none" xmlns="http://www.w3.org/2000/svg">
<path d="M230.287 211V60.5961H295.207C306.37 60.5961 316.137 62.6279 324.51 66.6916C332.882 70.7552 339.393 76.6059 344.044 84.2436C348.696 91.8813 351.021 101.037 351.021 111.71C351.021 122.481 348.622 131.563 343.824 138.956C339.075 146.349 332.392 151.93 323.775 155.7C315.207 159.47 305.195 161.355 293.738 161.355H254.962V129.629H285.513C290.311 129.629 294.399 129.042 297.778 127.867C301.205 126.643 303.824 124.709 305.636 122.065C307.496 119.421 308.426 115.969 308.426 111.71C308.426 107.401 307.496 103.901 305.636 101.208C303.824 98.4664 301.205 96.459 297.778 95.1861C294.399 93.8642 290.311 93.2032 285.513 93.2032H271.119V211H230.287ZM318.414 141.967L356.015 211H311.658L274.938 141.967H318.414Z" fill="#F1F2F2"/>
<path d="M9.694 211V60.5961H74.6144C85.7772 60.5961 95.5447 62.7993 103.917 67.2057C112.289 71.612 118.8 77.8054 123.452 85.7858C128.103 93.7662 130.428 103.093 130.428 113.766C130.428 124.537 128.029 133.864 123.231 141.747C118.482 149.629 111.799 155.7 103.182 159.96C94.6144 164.219 84.6022 166.349 73.1456 166.349H34.3696V134.623H64.9204C69.7185 134.623 73.8066 133.791 77.1848 132.126C80.612 130.412 83.2313 127.989 85.0428 124.856C86.9033 121.722 87.8335 118.026 87.8335 113.766C87.8335 109.458 86.9033 105.786 85.0428 102.75C83.2313 99.6659 80.612 97.3158 77.1848 95.7001C73.8066 94.0355 69.7185 93.2032 64.9204 93.2032H50.5263V211H9.694Z" fill="#F1F2F2"/>
<g filter="url(#filter0_d_28_38)">
<path d="M144.496 220.194L262.487 126.923L237.387 94.7161L145.206 167.584L107.827 119.622L82.0167 140.025L144.496 220.194Z" fill="#3A61C7"/>
</g>
<defs>
<filter id="filter0_d_28_38" x="36.0907" y="0.827988" width="272.322" height="265.292" filterUnits="userSpaceOnUse" color-interpolation-filters="sRGB">
<feFlood flood-opacity="0" result="BackgroundImageFix"/>
<feColorMatrix in="SourceAlpha" type="matrix" values="0 0 0 0 0 0 0 0 0 0 0 0 0 0 0 0 0 0 127 0" result="hardAlpha"/>
<feOffset/>
<feGaussianBlur stdDeviation="22.963"/>
<feComposite in2="hardAlpha" operator="out"/>
<feColorMatrix type="matrix" values="0 0 0 0 0.227451 0 0 0 0 0.380392 0 0 0 0 0.780392 0 0 0 0.5 0"/>
<feBlend mode="normal" in2="BackgroundImageFix" result="effect1_dropShadow_28_38"/>
<feBlend mode="normal" in="SourceGraphic" in2="effect1_dropShadow_28_38" result="shape"/>
</filter>
</defs>
</svg>
