<svg width="80" height="58" viewBox="0 0 80 58" fill="none" xmlns="http://www.w3.org/2000/svg">
<path d="M50.143 46V13.2508H64.2789C66.7095 13.2508 68.8363 13.6932 70.6593 14.578C72.4822 15.4628 73.9001 16.7368 74.9128 18.3998C75.9256 20.0629 76.432 22.0564 76.432 24.3804C76.432 26.7257 75.9096 28.7032 74.8649 30.313C73.8308 31.9227 72.3756 33.138 70.4994 33.9589C68.6338 34.7798 66.4537 35.1902 63.9591 35.1902H55.5159V28.2821H62.1681C63.2129 28.2821 64.103 28.1542 64.8386 27.8984C65.5848 27.6319 66.1552 27.2108 66.5496 26.6351C66.9547 26.0594 67.1573 25.3079 67.1573 24.3804C67.1573 23.4423 66.9547 22.68 66.5496 22.0937C66.1552 21.4967 65.5848 21.0596 64.8386 20.7824C64.103 20.4946 63.2129 20.3507 62.1681 20.3507H59.0339V46H50.143ZM69.332 30.9686L77.5193 46H67.8609L59.8654 30.9686H69.332Z" fill="#F1F2F2"/>
<path d="M2.11079 46V13.2508H16.2467C18.6773 13.2508 20.8041 13.7305 22.627 14.6899C24.45 15.6494 25.8678 16.9979 26.8806 18.7356C27.8934 20.4733 28.3997 22.5041 28.3997 24.8281C28.3997 27.1735 27.8774 29.2043 26.8326 30.9206C25.7986 32.637 24.3434 33.9589 22.4671 34.8864C20.6015 35.8138 18.4214 36.2776 15.9269 36.2776H7.48371V29.3695H14.1359C15.1806 29.3695 16.0708 29.1883 16.8064 28.8258C17.5526 28.4527 18.123 27.925 18.5174 27.2427C18.9225 26.5605 19.125 25.7556 19.125 24.8281C19.125 23.89 18.9225 23.0905 18.5174 22.4295C18.123 21.7579 17.5526 21.2462 16.8064 20.8944C16.0708 20.5319 15.1806 20.3507 14.1359 20.3507H11.0017V46H2.11079Z" fill="#F1F2F2"/>
<g filter="url(#filter0_d_18_365)">
<path d="M31.7955 47.9548L57.557 27.7346L52.0676 20.7407L31.9414 36.5378L23.7664 26.1225L18.1311 30.5456L31.7955 47.9548Z" fill="#3A61C7"/>
</g>
<defs>
<filter id="filter0_d_18_365" x="8.13086" y="0.325195" width="59.4263" height="57.6294" filterUnits="userSpaceOnUse" color-interpolation-filters="sRGB">
<feFlood flood-opacity="0" result="BackgroundImageFix"/>
<feColorMatrix in="SourceAlpha" type="matrix" values="0 0 0 0 0 0 0 0 0 0 0 0 0 0 0 0 0 0 127 0" result="hardAlpha"/>
<feOffset/>
<feGaussianBlur stdDeviation="5"/>
<feComposite in2="hardAlpha" operator="out"/>
<feColorMatrix type="matrix" values="0 0 0 0 0.227451 0 0 0 0 0.380392 0 0 0 0 0.780392 0 0 0 0.5 0"/>
<feBlend mode="normal" in2="BackgroundImageFix" result="effect1_dropShadow_18_365"/>
<feBlend mode="normal" in="SourceGraphic" in2="effect1_dropShadow_18_365" result="shape"/>
</filter>
</defs>
</svg>
