<svg width="502" height="545" viewBox="0 0 502 545" fill="none" xmlns="http://www.w3.org/2000/svg">
<path d="M250.545 595.743C309.73 595.743 357.708 576.073 357.708 551.81C357.708 527.546 309.73 507.876 250.545 507.876C191.36 507.876 143.382 527.546 143.382 551.81C143.382 576.073 191.36 595.743 250.545 595.743Z" fill="#3A61C7"/>
<path d="M250.545 595.743C309.73 595.743 357.708 576.073 357.708 551.81C357.708 527.546 309.73 507.876 250.545 507.876C191.36 507.876 143.382 527.546 143.382 551.81C143.382 576.073 191.36 595.743 250.545 595.743Z" fill="#3A61C7"/>
<path opacity="0.9" d="M250.545 595.743C309.73 595.743 357.708 576.073 357.708 551.81C357.708 527.546 309.73 507.876 250.545 507.876C191.36 507.876 143.382 527.546 143.382 551.81C143.382 576.073 191.36 595.743 250.545 595.743Z" fill="white"/>
<path d="M141.417 529.106C141.749 516.703 146.91 504.92 155.8 496.265C164.69 487.61 176.607 482.768 189.014 482.768C201.421 482.768 213.338 487.61 222.228 496.265C231.118 504.92 236.279 516.703 236.612 529.106C236.612 529.568 236.612 529.979 236.612 530.441C236.612 530.903 236.612 531.314 236.612 531.759C236.064 538.351 231.475 544.823 222.675 549.891C204.098 560.626 173.913 560.626 155.302 549.891C146.604 544.755 141.947 538.351 141.417 531.759C141.417 531.314 141.417 530.903 141.417 530.441C141.417 529.979 141.382 529.568 141.417 529.106Z" fill="#3A61C7"/>
<path opacity="0.8" d="M141.417 529.106C141.749 516.703 146.91 504.92 155.8 496.265C164.69 487.61 176.607 482.768 189.014 482.768C201.421 482.768 213.338 487.61 222.228 496.265C231.118 504.92 236.279 516.703 236.612 529.106C236.612 529.568 236.612 529.979 236.612 530.441C236.612 530.903 236.612 531.314 236.612 531.759C236.064 538.351 231.475 544.823 222.675 549.891C204.098 560.626 173.913 560.626 155.302 549.891C146.604 544.755 141.947 538.351 141.417 531.759C141.417 531.314 141.417 530.903 141.417 530.441C141.417 529.979 141.382 529.568 141.417 529.106Z" fill="white"/>
<g style="mix-blend-mode:lighten" opacity="0.3">
<path d="M168.312 487.556C175.468 484.099 183.375 482.489 191.313 482.873C199.25 483.257 206.965 485.623 213.753 489.755C220.541 493.887 226.186 499.654 230.173 506.528C234.159 513.403 236.361 521.166 236.576 529.11C236.576 529.572 236.576 529.983 236.576 530.445C236.576 530.908 236.576 531.319 236.576 531.764C236.028 538.356 231.439 544.827 222.639 549.895C215.25 553.938 207.131 556.469 198.754 557.343C211.099 555.203 219.095 541.42 215.294 526.199C210.928 508.53 193.07 483.002 168.312 487.556Z" fill="white"/>
</g>
<path opacity="0.1" d="M141.412 531.76C141.412 531.315 141.412 530.904 141.412 530.442C141.412 529.98 141.412 529.569 141.412 529.107C141.587 522.568 143.113 516.137 145.894 510.217C148.676 504.297 152.653 499.017 157.575 494.709C152.438 500.034 140.898 520.066 153.397 535.356C161.615 545.406 200.652 559.737 232.772 541.314C230.008 544.811 226.574 547.722 222.671 549.875C204.094 560.61 173.909 560.61 155.298 549.875C146.6 544.824 141.943 538.352 141.412 531.76Z" fill="#3A61C7"/>
<g style="mix-blend-mode:lighten" opacity="0.5">
<path d="M189.486 493.548C187.362 498.395 191.455 504.887 198.632 508.038C205.808 511.19 213.378 509.751 215.502 504.972C217.626 500.194 213.532 493.617 206.356 490.466C199.18 487.314 191.627 488.684 189.486 493.548Z" fill="white"/>
</g>
<g style="mix-blend-mode:lighten" opacity="0.5">
<path d="M217.068 513.291C215.954 515.826 217.564 518.978 220.664 520.348C223.764 521.718 227.173 520.759 228.286 518.224C229.399 515.689 227.789 512.538 224.689 511.185C221.589 509.832 218.181 510.842 217.068 513.291Z" fill="white"/>
</g>
<path d="M337.366 539.398C337.149 528.824 332.795 518.756 325.24 511.354C317.684 503.952 307.528 499.807 296.951 499.807C286.374 499.807 276.219 503.952 268.663 511.354C261.107 518.756 256.754 528.824 256.536 539.398C256.536 539.792 256.536 540.152 256.536 540.528C256.536 540.905 256.536 541.265 256.536 541.659C256.981 547.257 260.936 552.753 268.367 557.068C284.136 566.176 309.767 566.176 325.57 557.068C332.966 552.77 336.904 547.274 337.366 541.659C337.366 541.265 337.366 540.922 337.366 540.528C337.366 540.135 337.401 539.792 337.366 539.398Z" fill="#3A61C7"/>
<path opacity="0.8" d="M337.366 539.398C337.149 528.824 332.795 518.756 325.24 511.354C317.684 503.952 307.528 499.807 296.951 499.807C286.374 499.807 276.219 503.952 268.663 511.354C261.107 518.756 256.754 528.824 256.536 539.398C256.536 539.792 256.536 540.152 256.536 540.528C256.536 540.905 256.536 541.265 256.536 541.659C256.981 547.257 260.936 552.753 268.367 557.068C284.136 566.176 309.767 566.176 325.57 557.068C332.966 552.77 336.904 547.274 337.366 541.659C337.366 541.265 337.366 540.922 337.366 540.528C337.366 540.135 337.401 539.792 337.366 539.398Z" fill="white"/>
<g style="mix-blend-mode:lighten" opacity="0.3">
<path d="M314.492 504.111C308.417 501.169 301.702 499.797 294.96 500.12C288.218 500.444 281.664 502.452 275.899 505.963C270.134 509.473 265.341 514.373 261.958 520.214C258.576 526.055 256.711 532.65 256.536 539.398C256.536 539.792 256.536 540.151 256.536 540.528C256.536 540.905 256.536 541.264 256.536 541.658C256.981 547.257 260.936 552.753 268.367 557.067C274.637 560.5 281.529 562.648 288.639 563.385C278.161 561.587 271.363 549.876 274.599 536.933C278.332 521.917 293.501 500.241 314.492 504.111Z" fill="white"/>
</g>
<path opacity="0.1" d="M337.375 541.66C337.375 541.266 337.375 540.923 337.375 540.53C337.375 540.136 337.375 539.793 337.375 539.4C337.234 533.849 335.944 528.387 333.587 523.36C331.229 518.333 327.855 513.849 323.678 510.19C328.061 514.71 337.837 531.729 327.222 544.707C320.237 553.268 287.089 565.424 259.798 549.844C262.14 552.814 265.05 555.287 268.359 557.12C284.127 566.229 309.758 566.229 325.561 557.12C332.975 552.754 336.913 547.258 337.375 541.66Z" fill="#3A61C7"/>
<g style="mix-blend-mode:lighten" opacity="0.5">
<path d="M296.548 509.134C298.364 513.261 294.835 518.776 288.789 521.448C282.744 524.12 276.269 522.955 274.454 518.828C272.638 514.7 276.167 509.202 282.23 506.513C288.293 503.824 294.75 505.074 296.548 509.134Z" fill="white"/>
</g>
<g style="mix-blend-mode:lighten" opacity="0.5">
<path d="M273.115 525.974C273.761 526.86 274.116 527.925 274.133 529.021C274.149 530.118 273.826 531.193 273.207 532.098C272.588 533.003 271.703 533.694 270.675 534.077C269.648 534.459 268.526 534.514 267.466 534.234C266.406 533.953 265.459 533.351 264.754 532.51C264.05 531.67 263.623 530.632 263.533 529.539C263.442 528.446 263.693 527.351 264.249 526.406C264.806 525.461 265.641 524.712 266.641 524.261C267.731 523.65 269.016 523.487 270.225 523.807C271.433 524.126 272.469 524.903 273.115 525.974Z" fill="white"/>
</g>
<path d="M378.46 546.334C378.212 539.411 375.288 532.854 370.303 528.045C365.318 523.235 358.661 520.547 351.734 520.547C344.806 520.547 338.149 523.235 333.164 528.045C328.179 532.854 325.255 539.411 325.007 546.334C324.961 546.835 324.961 547.339 325.007 547.84C325.298 551.539 327.918 555.168 332.831 558.011C343.258 564.037 360.226 564.037 370.653 558.011C375.549 555.168 378.152 551.539 378.46 547.84C378.46 547.584 378.46 547.344 378.46 547.087C378.46 546.83 378.477 546.591 378.46 546.334Z" fill="#3A61C7"/>
<path opacity="0.9" d="M378.46 546.334C378.212 539.411 375.288 532.854 370.303 528.045C365.318 523.235 358.661 520.547 351.734 520.547C344.806 520.547 338.149 523.235 333.164 528.045C328.179 532.854 325.255 539.411 325.007 546.334C324.961 546.835 324.961 547.339 325.007 547.84C325.298 551.539 327.918 555.168 332.831 558.011C343.258 564.037 360.226 564.037 370.653 558.011C375.549 555.168 378.152 551.539 378.46 547.84C378.46 547.584 378.46 547.344 378.46 547.087C378.46 546.83 378.477 546.591 378.46 546.334Z" fill="white"/>
<g style="mix-blend-mode:lighten" opacity="0.5">
<path d="M363.342 523.014C359.325 521.07 354.885 520.164 350.428 520.377C345.971 520.591 341.638 521.918 337.826 524.237C334.013 526.556 330.843 529.794 328.603 533.653C326.364 537.513 325.128 541.873 325.007 546.334C324.961 546.835 324.961 547.339 325.007 547.84C325.298 551.538 327.918 555.168 332.831 558.01C336.974 560.289 341.534 561.71 346.238 562.188C339.303 560.989 334.818 553.251 336.958 544.707C339.423 534.811 349.456 520.446 363.342 523.014Z" fill="white"/>
</g>
<path opacity="0.1" d="M378.453 547.844C378.453 547.587 378.453 547.348 378.453 547.091C378.453 546.834 378.453 546.594 378.453 546.337C378.357 542.666 377.5 539.055 375.939 535.731C374.377 532.407 372.143 529.442 369.379 527.024C372.29 530.004 378.745 541.269 371.725 549.847C367.102 555.497 345.187 563.544 327.209 553.272C328.769 555.234 330.701 556.868 332.893 558.083C343.32 564.109 360.288 564.109 370.715 558.083C375.474 555.172 378.145 551.542 378.453 547.844Z" fill="#3A61C7"/>
<g style="mix-blend-mode:lighten" opacity="0.5">
<path d="M351.519 526.377C352.718 529.1 350.423 532.748 346.381 534.512C342.339 536.276 338.109 535.505 336.91 532.799C335.711 530.093 338.006 526.428 342.048 524.664C346.09 522.9 350.269 523.636 351.519 526.377Z" fill="white"/>
</g>
<g style="mix-blend-mode:lighten" opacity="0.5">
<path d="M335.971 537.471C336.14 538.262 336.031 539.088 335.662 539.807C335.293 540.527 334.686 541.098 333.945 541.422C333.204 541.746 332.373 541.804 331.594 541.587C330.815 541.37 330.135 540.89 329.668 540.229C329.487 539.815 329.389 539.369 329.381 538.918C329.372 538.466 329.452 538.017 329.616 537.596C329.781 537.176 330.027 536.792 330.34 536.466C330.653 536.14 331.027 535.88 331.441 535.699C331.855 535.518 332.3 535.42 332.752 535.411C333.204 535.402 333.653 535.482 334.073 535.647C334.494 535.811 334.878 536.057 335.204 536.37C335.529 536.683 335.79 537.057 335.971 537.471Z" fill="white"/>
</g>
<path d="M439.823 550.92C439.617 541.423 435.7 532.385 428.91 525.741C422.121 519.097 412.999 515.377 403.5 515.377C394.001 515.377 384.88 519.097 378.09 525.741C371.301 532.385 367.383 541.423 367.177 550.92C367.16 551.257 367.16 551.594 367.177 551.93C367.16 552.267 367.16 552.604 367.177 552.94C367.588 557.974 371.132 562.905 377.809 566.774C391.986 574.976 415.014 574.976 429.174 566.774C435.817 562.905 439.361 557.974 439.772 552.94C439.789 552.604 439.789 552.267 439.772 551.93C439.806 551.595 439.823 551.257 439.823 550.92Z" fill="#3A61C7"/>
<path opacity="0.7" d="M439.823 550.92C439.617 541.423 435.7 532.385 428.91 525.741C422.121 519.097 412.999 515.377 403.5 515.377C394.001 515.377 384.88 519.097 378.09 525.741C371.301 532.385 367.383 541.423 367.177 550.92C367.16 551.257 367.16 551.594 367.177 551.93C367.16 552.267 367.16 552.604 367.177 552.94C367.588 557.974 371.132 562.905 377.809 566.774C391.986 574.976 415.014 574.976 429.174 566.774C435.817 562.905 439.361 557.974 439.772 552.94C439.789 552.604 439.789 552.267 439.772 551.93C439.806 551.595 439.823 551.257 439.823 550.92Z" fill="white"/>
<g style="mix-blend-mode:lighten" opacity="0.3">
<path d="M419.278 519.204C413.817 516.561 407.782 515.328 401.722 515.619C395.663 515.91 389.773 517.714 384.591 520.868C379.409 524.022 375.1 528.424 372.058 533.673C369.016 538.921 367.338 544.849 367.177 550.913C367.16 551.249 367.16 551.587 367.177 551.923C367.16 552.26 367.16 552.597 367.177 552.933C367.588 557.967 371.132 562.898 377.809 566.767C383.443 569.859 389.636 571.797 396.027 572.469C386.593 570.842 380.498 560.33 383.391 548.704C386.781 535.195 400.41 515.711 419.278 519.204Z" fill="white"/>
</g>
<path opacity="0.1" d="M439.821 552.944C439.838 552.607 439.838 552.27 439.821 551.934C439.838 551.597 439.838 551.26 439.821 550.923C439.689 545.932 438.526 541.022 436.404 536.502C434.283 531.982 431.249 527.95 427.494 524.659C431.432 528.734 440.215 544.024 430.678 555.683C424.395 563.354 394.62 574.294 370.103 560.238C372.204 562.915 374.825 565.139 377.807 566.778C391.984 574.979 415.012 574.979 429.172 566.778C435.866 562.908 439.41 557.977 439.821 552.944Z" fill="#3A61C7"/>
<g style="mix-blend-mode:lighten" opacity="0.5">
<path d="M403.139 523.766C404.852 527.483 401.649 532.432 396.151 534.847C390.654 537.262 384.916 536.2 383.289 532.484C381.662 528.767 384.779 523.835 390.26 521.42C395.74 519.005 401.512 520.067 403.139 523.766Z" fill="white"/>
</g>
<g style="mix-blend-mode:lighten" opacity="0.5">
<path d="M382.093 538.852C382.315 539.924 382.162 541.04 381.659 542.013C381.156 542.986 380.334 543.757 379.331 544.196C378.328 544.636 377.204 544.717 376.148 544.427C375.092 544.137 374.168 543.493 373.53 542.603C373.308 541.53 373.461 540.414 373.964 539.441C374.467 538.468 375.289 537.698 376.292 537.258C377.295 536.819 378.419 536.738 379.475 537.028C380.531 537.318 381.455 537.962 382.093 538.852Z" fill="white"/>
</g>
<path d="M294.039 465.76C294.044 472.058 292.676 478.283 290.03 483.999C287.383 489.715 283.522 494.785 278.715 498.855C275.536 501.476 272.969 504.76 271.195 508.478C269.42 512.196 268.481 516.257 268.442 520.377V590.969C268.442 593.605 266.73 596.259 263.22 598.262C261.175 599.403 258.961 600.212 256.663 600.659C252.652 601.481 248.517 601.481 244.506 600.659C242.22 600.207 240.019 599.398 237.983 598.262C234.559 596.259 232.761 593.605 232.761 590.969V520.172C232.705 516.09 231.757 512.069 229.982 508.393C228.207 504.716 225.65 501.473 222.488 498.89C217.612 494.79 213.702 489.664 211.039 483.877C208.375 478.091 207.023 471.787 207.079 465.417C207.124 453.892 211.746 442.858 219.927 434.741C228.109 426.623 239.179 422.089 250.704 422.134C262.229 422.18 273.264 426.801 281.381 434.983C289.498 443.164 294.033 454.235 293.987 465.76H294.039Z" fill="#3A61C7"/>
<path opacity="0.5" d="M294.039 465.76C294.044 472.058 292.676 478.283 290.03 483.999C287.383 489.715 283.522 494.785 278.715 498.855C275.536 501.476 272.969 504.76 271.195 508.478C269.42 512.196 268.481 516.257 268.442 520.377V590.969C268.442 593.605 266.73 596.259 263.22 598.262C261.175 599.403 258.961 600.212 256.663 600.659C252.652 601.481 248.517 601.481 244.506 600.659C242.22 600.207 240.019 599.398 237.983 598.262C234.559 596.259 232.761 593.605 232.761 590.969V520.172C232.705 516.09 231.757 512.069 229.982 508.393C228.207 504.716 225.65 501.473 222.488 498.89C217.612 494.79 213.702 489.664 211.039 483.877C208.375 478.091 207.023 471.787 207.079 465.417C207.124 453.892 211.746 442.858 219.927 434.741C228.109 426.623 239.179 422.089 250.704 422.134C262.229 422.18 273.264 426.801 281.381 434.983C289.498 443.164 294.033 454.235 293.987 465.76H294.039Z" fill="white"/>
<path d="M274.824 465.765C274.815 469.637 273.878 473.451 272.09 476.886C270.303 480.321 267.717 483.277 264.551 485.506C262.038 487.369 260.005 489.803 258.621 492.608C257.236 495.413 256.54 498.507 256.589 501.635V582.602C256.608 584.22 255.987 585.781 254.862 586.944C253.737 588.108 252.198 588.781 250.58 588.817H250.494C248.873 588.785 247.33 588.115 246.201 586.95C245.072 585.786 244.449 584.223 244.467 582.602V501.309C244.495 498.231 243.789 495.19 242.407 492.439C241.026 489.688 239.009 487.306 236.523 485.489C233.261 483.198 230.616 480.136 228.824 476.575C227.031 473.014 226.147 469.065 226.25 465.08C226.341 458.65 228.982 452.52 233.593 448.037C238.204 443.555 244.407 441.088 250.837 441.179C257.267 441.27 263.397 443.911 267.879 448.522C272.362 453.133 274.829 459.335 274.738 465.765H274.824Z" fill="#3A61C7"/>
<path opacity="0.7" d="M274.824 465.765C274.815 469.637 273.878 473.451 272.09 476.886C270.303 480.321 267.717 483.277 264.551 485.506C262.038 487.369 260.005 489.803 258.621 492.608C257.236 495.413 256.54 498.507 256.589 501.635V582.602C256.608 584.22 255.987 585.781 254.862 586.944C253.737 588.108 252.198 588.781 250.58 588.817H250.494C248.873 588.785 247.33 588.115 246.201 586.95C245.072 585.786 244.449 584.223 244.467 582.602V501.309C244.495 498.231 243.789 495.19 242.407 492.439C241.026 489.688 239.009 487.306 236.523 485.489C233.261 483.198 230.616 480.136 228.824 476.575C227.031 473.014 226.147 469.065 226.25 465.08C226.341 458.65 228.982 452.52 233.593 448.037C238.204 443.555 244.407 441.088 250.837 441.179C257.267 441.27 263.397 443.911 267.879 448.522C272.362 453.133 274.829 459.335 274.738 465.765H274.824Z" fill="white"/>
<path opacity="0.7" d="M268.721 493.162C274.983 493.162 280.059 488.086 280.059 481.824C280.059 475.562 274.983 470.486 268.721 470.486C262.459 470.486 257.383 475.562 257.383 481.824C257.383 488.086 262.459 493.162 268.721 493.162Z" fill="white"/>
<path opacity="0.7" d="M261.778 459.273C261.778 457.922 262.178 456.601 262.927 455.476C263.676 454.351 264.741 453.473 265.988 452.952C267.235 452.431 268.608 452.291 269.935 452.548C271.261 452.806 272.482 453.45 273.443 454.399C274.405 455.349 275.064 456.562 275.338 457.885C275.612 459.208 275.488 460.583 274.983 461.836C274.477 463.089 273.613 464.165 272.497 464.928C271.382 465.691 270.066 466.107 268.715 466.124C267.808 466.135 266.908 465.967 266.067 465.627C265.226 465.288 264.46 464.785 263.815 464.148C263.17 463.511 262.658 462.752 262.308 461.915C261.958 461.078 261.778 460.18 261.778 459.273Z" fill="white"/>
<path opacity="0.7" d="M248.567 448.224C248.567 447.547 248.768 446.885 249.145 446.321C249.521 445.758 250.056 445.319 250.682 445.06C251.308 444.8 251.997 444.732 252.661 444.865C253.326 444.997 253.936 445.323 254.415 445.802C254.894 446.281 255.22 446.892 255.352 447.556C255.485 448.221 255.417 448.909 255.158 449.535C254.898 450.161 254.459 450.696 253.896 451.072C253.333 451.449 252.67 451.65 251.993 451.65C251.084 451.65 250.213 451.289 249.571 450.646C248.928 450.004 248.567 449.133 248.567 448.224Z" fill="white"/>
<path opacity="0.7" d="M221.167 452.341C221.167 450.498 221.714 448.696 222.738 447.163C223.763 445.63 225.219 444.436 226.923 443.732C228.626 443.027 230.5 442.843 232.308 443.204C234.116 443.565 235.776 444.454 237.079 445.759C238.381 447.064 239.267 448.725 239.624 450.534C239.982 452.342 239.795 454.216 239.087 455.919C238.379 457.621 237.183 459.075 235.648 460.096C234.114 461.118 232.311 461.662 230.467 461.658C229.244 461.658 228.034 461.417 226.904 460.949C225.775 460.48 224.749 459.794 223.885 458.928C223.021 458.063 222.336 457.036 221.87 455.905C221.404 454.775 221.165 453.564 221.167 452.341Z" fill="white"/>
<path opacity="0.7" d="M219.676 469.166C219.676 470.03 219.932 470.874 220.412 471.593C220.892 472.311 221.574 472.871 222.372 473.201C223.17 473.532 224.048 473.618 224.895 473.45C225.742 473.281 226.521 472.865 227.131 472.255C227.742 471.644 228.158 470.866 228.327 470.018C228.495 469.171 228.409 468.293 228.078 467.495C227.748 466.697 227.188 466.015 226.47 465.535C225.751 465.055 224.907 464.799 224.043 464.799C222.885 464.799 221.774 465.259 220.955 466.078C220.136 466.897 219.676 468.008 219.676 469.166Z" fill="white"/>
<path opacity="0.7" d="M229.949 491.534C233.865 491.534 237.04 488.36 237.04 484.444C237.04 480.528 233.865 477.353 229.949 477.353C226.033 477.353 222.858 480.528 222.858 484.444C222.858 488.36 226.033 491.534 229.949 491.534Z" fill="white"/>
<path opacity="0.7" d="M239.786 495.141C239.786 493.986 240.129 492.856 240.77 491.896C241.412 490.935 242.324 490.187 243.391 489.745C244.459 489.303 245.633 489.187 246.766 489.413C247.899 489.638 248.939 490.194 249.756 491.011C250.573 491.828 251.129 492.868 251.355 494.001C251.58 495.134 251.464 496.308 251.022 497.376C250.58 498.443 249.832 499.355 248.871 499.997C247.911 500.639 246.782 500.981 245.626 500.981C244.078 500.981 242.592 500.366 241.497 499.27C240.401 498.175 239.786 496.69 239.786 495.141Z" fill="white"/>
<path opacity="0.7" d="M211.317 459.277C211.314 458.686 211.486 458.109 211.811 457.616C212.137 457.124 212.601 456.739 213.145 456.511C213.689 456.283 214.289 456.221 214.868 456.334C215.448 456.448 215.98 456.73 216.399 457.146C216.817 457.562 217.103 458.093 217.219 458.672C217.336 459.25 217.278 459.85 217.052 460.396C216.827 460.941 216.445 461.408 215.955 461.736C215.465 462.064 214.888 462.24 214.298 462.24C213.51 462.24 212.755 461.928 212.196 461.373C211.638 460.818 211.322 460.064 211.317 459.277Z" fill="white"/>
<path opacity="0.7" d="M276.058 446.957C276.058 446.181 276.288 445.423 276.719 444.778C277.15 444.133 277.762 443.63 278.479 443.333C279.196 443.036 279.984 442.959 280.745 443.11C281.506 443.261 282.205 443.635 282.753 444.183C283.302 444.732 283.675 445.431 283.827 446.192C283.978 446.952 283.9 447.741 283.603 448.458C283.306 449.174 282.804 449.787 282.159 450.218C281.514 450.649 280.755 450.879 279.98 450.879C279.465 450.879 278.955 450.778 278.479 450.58C278.003 450.383 277.571 450.094 277.206 449.73C276.842 449.366 276.553 448.934 276.356 448.458C276.159 447.982 276.058 447.472 276.058 446.957Z" fill="white"/>
<path opacity="0.7" d="M279.964 466.19C279.961 465.406 280.19 464.639 280.624 463.986C281.057 463.333 281.675 462.823 282.398 462.521C283.122 462.22 283.919 462.14 284.688 462.292C285.457 462.444 286.163 462.821 286.718 463.376C287.272 463.93 287.649 464.636 287.801 465.406C287.954 466.175 287.874 466.971 287.572 467.695C287.271 468.419 286.761 469.036 286.108 469.47C285.454 469.903 284.687 470.133 283.903 470.13C282.86 470.125 281.86 469.709 281.123 468.971C280.385 468.233 279.968 467.234 279.964 466.19Z" fill="white"/>
<path opacity="0.7" d="M239.085 469.367C239.085 468.584 239.317 467.818 239.753 467.167C240.188 466.516 240.807 466.009 241.531 465.71C242.255 465.411 243.052 465.334 243.82 465.488C244.588 465.642 245.292 466.02 245.845 466.576C246.398 467.131 246.773 467.837 246.924 468.606C247.075 469.374 246.994 470.17 246.692 470.893C246.39 471.616 245.88 472.232 245.227 472.665C244.574 473.098 243.807 473.327 243.024 473.323C242.506 473.323 241.992 473.221 241.513 473.022C241.034 472.823 240.599 472.531 240.233 472.164C239.867 471.796 239.577 471.36 239.38 470.88C239.183 470.4 239.083 469.886 239.085 469.367Z" fill="white"/>
<path d="M301.852 38.2927C301.371 38.2811 300.899 38.4187 300.5 38.6865C298.642 40.7781 296.926 42.9918 295.363 45.3125C291.665 50.8941 283.943 61.9032 281.221 73.5457C280.922 74.848 280.784 76.182 280.81 77.5179C276.101 159.855 279.372 219.523 280.656 312.373C280.656 315.626 283.515 318.947 289.439 320.831C293.943 322.267 298.768 322.362 303.325 321.105C309.317 319.393 312.365 316.259 312.433 313.006C317.672 220.277 322.98 160.78 321.49 78.3055C321.583 76.9766 321.502 75.6415 321.251 74.3333C318.991 62.588 311.697 51.2879 308.221 45.5693C306.726 43.1749 305.067 40.8866 303.256 38.7207C302.848 38.427 302.355 38.2765 301.852 38.2927Z" fill="#455A64"/>
<path d="M321.428 78.9524C320.078 80.6761 318.357 82.0745 316.394 83.0444C307.662 87.5816 293.862 86.9994 285.576 81.726C283.62 80.547 281.971 78.9218 280.764 76.9834C280.764 77.1375 280.764 77.2916 280.764 77.4628L280.354 84.962C281.557 86.9685 283.239 88.6452 285.25 89.8416C293.554 95.115 307.354 95.7143 316.069 91.16C318.3 90.088 320.2 88.4313 321.565 86.3659C321.513 83.9176 321.479 81.435 321.428 78.9524Z" fill="#3A61C7"/>
<path d="M300.5 38.6312C298.642 40.7229 296.926 42.9365 295.363 45.2573C291.665 50.8388 283.943 61.8479 281.221 73.4905C280.922 74.7927 280.784 76.1268 280.81 77.4627C276.101 159.8 279.372 219.468 280.656 312.318C280.656 315.228 282.933 318.173 287.658 320.125C287.984 272.63 288.703 156.067 288.583 120.677C288.36 75.956 298.599 44.8463 301.852 38.2888C301.377 38.2642 300.906 38.3835 300.5 38.6312Z" fill="#37474F"/>
<path d="M221.783 332.774C213.941 358.166 205.962 383.522 197.47 408.708C195.963 413.108 197.881 418.793 202.076 422.405C215.615 433.846 232.859 439.963 250.581 439.612C268.347 439.606 285.535 433.296 299.086 421.806C303.264 418.176 305.181 412.595 303.692 408.297C295.045 383.505 287.101 358.491 279.379 333.408L221.783 332.774Z" fill="#37474F"/>
<path d="M250.577 419.821C232.924 420.403 213.046 413.708 199.811 401.775L197.414 408.743C195.908 413.143 197.825 418.828 202.02 422.44C215.58 433.845 232.809 439.957 250.525 439.647C268.307 439.608 285.504 433.289 299.082 421.807C303.259 418.177 305.177 412.595 303.687 408.298C302.746 405.593 302.283 404.223 301.342 401.449C287.405 413.742 268.845 419.221 250.577 419.821Z" fill="#455A64"/>
<path d="M299.078 421.808C285.497 433.307 268.283 439.627 250.487 439.648C249.272 439.648 248.073 439.648 246.909 439.648C245.745 439.648 244.58 439.546 243.485 439.46L241.773 439.289L239.153 438.998C238.588 438.998 238.023 438.844 237.441 438.741L235.729 438.45L232.972 437.919L232.476 437.799C231.414 437.56 230.37 437.286 229.359 437.012C228.349 436.738 226.877 436.293 225.695 435.899L223.641 435.163C222.733 434.854 221.929 434.495 221.004 434.135C219.292 433.451 217.717 432.714 216.227 431.978L215.097 431.396C214.635 431.173 214.19 430.917 213.796 430.694C213.402 430.471 212.546 429.992 211.964 429.65L210.064 428.485L208.266 427.321C207.701 426.944 207.17 426.551 206.554 426.174C207.804 419.445 208.437 416.055 209.687 409.207C213.513 411.492 217.542 413.418 221.723 414.959C221.278 418.264 220.713 420.866 220.833 421.346C225.49 438.399 266.273 441.429 299.078 421.808Z" fill="#263238"/>
<path d="M297.355 90.7956C297.5 87.3499 297.218 83.8994 296.516 80.5228C290.095 50.4062 271.382 23.5769 261.554 9.45166C259.43 6.34605 256.908 3.53141 254.055 1.07926C253.029 0.376229 251.814 0 250.57 0C249.327 0 248.112 0.376229 247.086 1.07926C244.182 3.47432 241.659 6.29745 239.604 9.45166C230.393 23.9878 211.046 50.4062 204.625 80.5228C203.923 83.8994 203.641 87.3499 203.786 90.7956L209.624 358.181C209.624 366.554 217.312 374.943 232.67 379.515C244.359 382.973 256.799 382.973 268.488 379.515C283.897 374.943 291.516 366.554 291.516 358.181L297.355 90.7956Z" fill="#3A61C7"/>
<path opacity="0.5" d="M279.601 111.809C279.601 136.806 277.717 275.576 276.296 376.558C286.415 371.798 291.483 364.984 291.483 358.187L297.321 90.8009C297.466 87.3552 297.185 83.9047 296.482 80.5281C290.062 50.4115 271.348 23.5822 261.52 9.45697C260.699 8.29271 259.705 7.00859 258.695 5.79297C271.742 30.465 279.601 71.7277 279.601 111.809Z" fill="white"/>
<path opacity="0.1" d="M268.495 379.523C283.904 374.952 291.523 366.562 291.523 358.19L296.215 143.418C294.978 141.286 293.477 139.318 291.746 137.563C290.798 136.906 289.672 136.554 288.519 136.554C287.365 136.554 286.239 136.906 285.291 137.563C283.733 138.642 279.984 144.84 278.186 147.511C269.317 160.574 251.887 185.263 245.946 213.171C245.299 216.289 245.035 219.475 245.159 222.657L250.5 378.855C250.504 379.955 250.654 381.049 250.946 382.109C256.888 382.074 262.795 381.204 268.495 379.523Z" fill="black"/>
<path opacity="0.2" d="M254.055 1.13494C253.029 0.431906 251.814 0.0556641 250.57 0.0556641C249.327 0.0556641 248.112 0.431906 247.086 1.13494C244.182 3.53 241.659 6.35311 239.604 9.50732C230.393 24.0434 211.046 50.4618 204.625 80.5784C203.923 83.955 203.641 87.4055 203.786 90.8513L209.624 358.237C209.624 365.616 215.6 372.996 227.499 377.772V221.967C227.499 133.278 230.016 73.3189 233.92 51.2836C237.823 29.2483 249.672 -1.2107 254.055 1.13494Z" fill="black"/>
<path d="M214.541 98.216C234.265 109.602 266.265 109.602 285.989 98.216C290.505 95.7618 294.4 92.3064 297.374 88.1144C297.329 85.5817 297.043 83.0592 296.518 80.5809C296.244 79.2626 295.936 77.9785 295.611 76.6772C292.869 79.7924 289.615 82.4156 285.989 84.4333C266.265 95.819 234.265 95.819 214.541 84.4333C211.135 82.5231 208.05 80.0909 205.398 77.2251C205.124 78.338 204.867 79.4509 204.628 80.6494C204.061 83.4216 203.774 86.2437 203.771 89.0732C206.693 92.8303 210.359 95.9431 214.541 98.216Z" fill="#455A64"/>
<path d="M204.083 84.0029C204.083 84.3626 204.083 84.7051 203.963 85.0648C203.843 85.4245 203.963 86.0924 203.86 86.6234C203.86 86.7946 203.86 86.9659 203.86 87.1543V89.004C206.751 92.7782 210.389 95.9151 214.548 98.2185C219.263 100.874 224.315 102.879 229.568 104.179C229.774 99.3831 229.997 94.8444 230.236 90.5626C224.752 89.2829 219.472 87.2482 214.548 84.5167C211.141 82.6059 208.055 80.1729 205.402 77.3062C205.128 78.4194 204.871 79.5327 204.631 80.7316C204.477 81.4852 204.34 82.2388 204.237 83.0095C204.169 83.2322 204.134 83.6261 204.083 84.0029Z" fill="#37474F"/>
<path d="M330.972 416.774H316.037C313.913 429.671 320.764 439.571 323.504 439.571C326.245 439.571 333.027 429.671 330.972 416.774Z" fill="#3A61C7"/>
<path opacity="0.7" d="M330.972 416.774H316.037C313.913 429.671 320.764 439.571 323.504 439.571C326.245 439.571 333.027 429.671 330.972 416.774Z" fill="white"/>
<path d="M323.431 416.774H325.983C327.156 418.855 327.641 421.253 327.371 423.625C327.062 427.051 324.973 431.624 323.431 431.624C321.89 431.624 319.8 427.102 319.492 423.625C319.221 421.253 319.707 418.855 320.879 416.774H323.431Z" fill="white"/>
<path d="M330.857 393.597L315.442 399.044L314.226 404.182C314.181 405.256 314.414 406.323 314.903 407.281C315.393 408.238 316.121 409.053 317.018 409.645C317.74 410.176 318.529 410.608 319.364 410.93C322.239 412.018 325.413 412.018 328.288 410.93C329.104 410.607 329.875 410.181 330.583 409.663C331.482 409.072 332.212 408.258 332.702 407.3C333.191 406.342 333.423 405.274 333.374 404.199L330.857 393.597Z" fill="#3A61C7"/>
<path opacity="0.25" d="M330.857 393.597L315.442 399.044L314.226 404.182C314.181 405.256 314.414 406.323 314.903 407.281C315.393 408.238 316.121 409.053 317.018 409.645C317.74 410.176 318.529 410.608 319.364 410.93C322.239 412.018 325.413 412.018 328.288 410.93C329.104 410.607 329.875 410.181 330.583 409.663C331.482 409.072 332.212 408.258 332.702 407.3C333.191 406.342 333.423 405.274 333.374 404.199L330.857 393.597Z" fill="black"/>
<path d="M333.697 405.729L334.211 407.904C334.207 409.031 333.925 410.139 333.391 411.131C332.856 412.123 332.085 412.967 331.145 413.59C330.375 414.168 329.528 414.635 328.628 414.977C325.509 416.154 322.069 416.154 318.951 414.977C318.034 414.63 317.169 414.157 316.382 413.573C315.443 412.947 314.674 412.098 314.142 411.104C313.61 410.109 313.332 408.998 313.333 407.869L311.929 413.898C311.985 415.044 312.328 416.157 312.927 417.136C313.525 418.114 314.36 418.927 315.354 419.499C316.288 420.12 317.302 420.609 318.369 420.955C321.868 422.103 325.642 422.103 329.142 420.955C330.186 420.595 331.182 420.106 332.105 419.499C333.099 418.927 333.933 418.114 334.532 417.136C335.13 416.157 335.474 415.044 335.53 413.898L333.697 405.729Z" fill="#3A61C7"/>
<path opacity="0.25" d="M333.697 405.729L334.211 407.904C334.207 409.031 333.925 410.139 333.391 411.131C332.856 412.123 332.085 412.967 331.145 413.59C330.375 414.168 329.528 414.635 328.628 414.977C325.509 416.154 322.069 416.154 318.951 414.977C318.034 414.63 317.169 414.157 316.382 413.573C315.443 412.947 314.674 412.098 314.142 411.104C313.61 410.109 313.332 408.998 313.333 407.869L311.929 413.898C311.985 415.044 312.328 416.157 312.927 417.136C313.525 418.114 314.36 418.927 315.354 419.499C316.288 420.12 317.302 420.609 318.369 420.955C321.868 422.103 325.642 422.103 329.142 420.955C330.186 420.595 331.182 420.106 332.105 419.499C333.099 418.927 333.933 418.114 334.532 417.136C335.13 416.157 335.474 415.044 335.53 413.898L333.697 405.729Z" fill="black"/>
<path d="M333.695 405.695L333.575 405.181L333.336 404.171C333.384 405.246 333.152 406.314 332.663 407.272C332.173 408.23 331.443 409.044 330.544 409.635C329.836 410.153 329.065 410.579 328.249 410.902C325.374 411.99 322.201 411.99 319.326 410.902C318.49 410.58 317.701 410.148 316.979 409.617C316.082 409.025 315.354 408.21 314.865 407.253C314.375 406.295 314.142 405.228 314.187 404.154L313.331 407.87C313.33 408.999 313.608 410.11 314.14 411.104C314.672 412.099 315.441 412.948 316.38 413.574C317.167 414.158 318.032 414.631 318.949 414.978C322.067 416.155 325.507 416.155 328.626 414.978C329.526 414.636 330.373 414.169 331.143 413.591C332.083 412.968 332.854 412.124 333.389 411.132C333.923 410.14 334.205 409.032 334.209 407.905L333.695 405.695Z" fill="#455A64"/>
<path opacity="0.15" d="M332.156 399.118L330.854 393.586L315.44 399.032L314.224 404.171L313.881 405.695L313.367 407.887L312.374 412.083C321.143 409.583 328.217 404.924 332.156 399.118Z" fill="black"/>
<path d="M278.15 416.78H263.215C261.092 429.677 267.943 439.577 270.683 439.577C273.423 439.577 280.291 429.677 278.15 416.78Z" fill="#3A61C7"/>
<path opacity="0.7" d="M278.15 416.78H263.215C261.092 429.677 267.943 439.577 270.683 439.577C273.423 439.577 280.291 429.677 278.15 416.78Z" fill="white"/>
<path d="M270.688 416.78H273.257C274.43 418.861 274.915 421.258 274.644 423.631C274.336 427.057 272.23 431.63 270.688 431.63C269.147 431.63 267.057 427.108 266.749 423.631C266.478 421.258 266.964 418.861 268.136 416.78H270.688Z" fill="white"/>
<path d="M278.099 393.592H263.969L261.452 404.176C261.399 405.25 261.628 406.318 262.114 407.276C262.601 408.234 263.329 409.049 264.226 409.64C264.948 410.171 265.737 410.603 266.573 410.925C269.448 412.013 272.621 412.013 275.496 410.925C276.314 410.605 277.085 410.179 277.791 409.657C278.69 409.067 279.421 408.253 279.91 407.295C280.4 406.337 280.631 405.268 280.583 404.194L278.099 393.592Z" fill="#3A61C7"/>
<path opacity="0.25" d="M278.099 393.592H263.969L261.452 404.176C261.399 405.25 261.628 406.318 262.114 407.276C262.601 408.234 263.329 409.049 264.226 409.64C264.948 410.171 265.737 410.603 266.573 410.925C269.448 412.013 272.621 412.013 275.496 410.925C276.314 410.605 277.085 410.179 277.791 409.657C278.69 409.067 279.421 408.253 279.91 407.295C280.4 406.337 280.631 405.268 280.583 404.194L278.099 393.592Z" fill="black"/>
<path d="M280.823 405.183L280.943 405.697L281.456 407.906C281.452 409.033 281.171 410.142 280.636 411.133C280.101 412.125 279.33 412.97 278.391 413.593C277.62 414.171 276.773 414.638 275.873 414.98C272.755 416.157 269.314 416.157 266.196 414.98C265.281 414.628 264.417 414.156 263.627 413.575C262.688 412.949 261.919 412.101 261.387 411.106C260.855 410.111 260.578 409 260.578 407.872L259.174 413.901C259.23 415.047 259.574 416.16 260.172 417.138C260.77 418.117 261.605 418.929 262.599 419.501C263.533 420.122 264.547 420.612 265.614 420.957C269.113 422.105 272.887 422.105 276.387 420.957C277.433 420.601 278.428 420.112 279.35 419.501C280.344 418.929 281.178 418.117 281.777 417.138C282.375 416.16 282.719 415.047 282.775 413.901L280.823 405.183Z" fill="#3A61C7"/>
<path opacity="0.25" d="M280.823 405.183L280.943 405.697L281.456 407.906C281.452 409.033 281.171 410.142 280.636 411.133C280.101 412.125 279.33 412.97 278.391 413.593C277.62 414.171 276.773 414.638 275.873 414.98C272.755 416.157 269.314 416.157 266.196 414.98C265.281 414.628 264.417 414.156 263.627 413.575C262.688 412.949 261.919 412.101 261.387 411.106C260.855 410.111 260.578 409 260.578 407.872L259.174 413.901C259.23 415.047 259.574 416.16 260.172 417.138C260.77 418.117 261.605 418.929 262.599 419.501C263.533 420.122 264.547 420.612 265.614 420.957C269.113 422.105 272.887 422.105 276.387 420.957C277.433 420.601 278.428 420.112 279.35 419.501C280.344 418.929 281.178 418.117 281.777 417.138C282.375 416.16 282.719 415.047 282.775 413.901L280.823 405.183Z" fill="black"/>
<path d="M280.94 405.695L280.821 405.181L280.581 404.171C280.629 405.246 280.398 406.314 279.908 407.272C279.419 408.23 278.688 409.044 277.789 409.635C277.083 410.156 276.312 410.583 275.494 410.902C272.619 411.99 269.446 411.99 266.571 410.902C265.735 410.58 264.946 410.148 264.224 409.617C263.327 409.026 262.599 408.212 262.113 407.254C261.626 406.295 261.397 405.227 261.45 404.154L260.576 407.87C260.575 408.999 260.853 410.11 261.385 411.104C261.917 412.099 262.686 412.948 263.625 413.574C264.415 414.154 265.279 414.627 266.194 414.978C269.312 416.155 272.753 416.155 275.871 414.978C276.771 414.636 277.618 414.169 278.388 413.591C279.328 412.968 280.099 412.124 280.634 411.132C281.168 410.14 281.45 409.032 281.454 407.905L280.94 405.695Z" fill="#455A64"/>
<path opacity="0.15" d="M263.971 393.586L262.669 399.067C266.574 404.89 273.648 409.549 282.434 412.066L280.824 405.215L280.584 404.205L278.101 393.62L263.971 393.586Z" fill="black"/>
<path d="M311.932 426.173L297.396 422.406L282.86 426.173C281.769 432.793 281.822 439.551 283.014 446.154C284.914 458.361 293.424 470.569 297.396 470.569C301.368 470.569 309.86 458.361 311.761 446.154C312.952 439.551 313.01 432.795 311.932 426.173Z" fill="#3A61C7"/>
<path opacity="0.7" d="M311.932 426.173L297.396 422.406L282.86 426.173C281.769 432.793 281.822 439.551 283.014 446.154C284.914 458.361 293.424 470.569 297.396 470.569C301.368 470.569 309.86 458.361 311.761 446.154C312.952 439.551 313.01 432.795 311.932 426.173Z" fill="white"/>
<path d="M306.906 427.932H287.004C284.161 445.059 293.29 458.299 296.955 458.299C300.62 458.299 309.749 445.111 306.906 427.932Z" fill="#3A61C7"/>
<path d="M296.948 427.938H300.374C301.956 430.721 302.605 433.939 302.224 437.118C301.813 441.742 299.021 447.771 296.966 447.771C294.91 447.771 292.119 441.742 291.708 437.118C291.336 433.939 291.984 430.724 293.557 427.938H296.983" fill="white"/>
<path d="M310.148 409.909L308.538 403.058H286.273L284.68 409.909C284.616 411.34 284.925 412.763 285.577 414.039C286.228 415.315 287.2 416.4 288.397 417.188C289.357 417.901 290.412 418.477 291.531 418.9C295.359 420.357 299.589 420.357 303.417 418.9C304.508 418.474 305.534 417.898 306.466 417.188C307.658 416.397 308.623 415.311 309.269 414.035C309.915 412.759 310.217 411.337 310.148 409.909Z" fill="#3A61C7"/>
<path d="M310.433 411.26L310.587 411.928L311.272 414.874C311.276 416.378 310.907 417.859 310.199 419.186C309.491 420.513 308.465 421.644 307.213 422.478C306.16 423.242 305.008 423.859 303.788 424.311C299.632 425.878 295.047 425.878 290.891 424.311C289.67 423.847 288.517 423.219 287.466 422.444C286.21 421.608 285.182 420.475 284.47 419.145C283.759 417.815 283.388 416.33 283.389 414.822L281.522 422.855C281.606 424.387 282.074 425.874 282.882 427.179C283.69 428.484 284.812 429.564 286.147 430.322C287.39 431.159 288.745 431.816 290.172 432.275C294.832 433.817 299.864 433.817 304.524 432.275C305.92 431.801 307.25 431.15 308.481 430.34C309.815 429.582 310.938 428.501 311.746 427.196C312.554 425.891 313.021 424.404 313.105 422.872L310.433 411.26Z" fill="#3A61C7"/>
<path d="M310.616 411.929L310.462 411.261L310.154 409.908C310.218 411.341 309.907 412.766 309.252 414.042C308.597 415.319 307.621 416.402 306.42 417.187C305.489 417.897 304.463 418.473 303.372 418.9C299.543 420.356 295.314 420.356 291.485 418.9C290.366 418.477 289.311 417.9 288.351 417.187C287.154 416.399 286.182 415.314 285.531 414.038C284.879 412.762 284.571 411.339 284.634 409.908L283.47 414.858C283.468 416.365 283.84 417.85 284.551 419.18C285.262 420.51 286.291 421.643 287.546 422.479C288.598 423.254 289.75 423.882 290.971 424.346C295.128 425.913 299.712 425.913 303.868 424.346C305.088 423.894 306.241 423.277 307.294 422.513C308.545 421.679 309.571 420.548 310.279 419.221C310.988 417.895 311.356 416.413 311.353 414.909L310.616 411.929Z" fill="#455A64"/>
<path opacity="0.15" d="M297.362 414.127C301.874 414.138 306.372 413.603 310.756 412.534L310.618 411.935L310.464 411.267L310.156 409.914L308.546 403.063H286.281L284.688 409.914L284.071 412.551C288.423 413.601 292.885 414.13 297.362 414.127Z" fill="black"/>
<path d="M315.131 364.57L377.641 341.559C377.72 338.879 377.629 336.197 377.367 333.529C377.367 332.707 377.196 331.919 377.093 331.132C376.99 330.344 376.853 329.608 376.699 328.889C376.545 328.17 376.357 327.382 376.151 326.68C376.049 326.304 375.929 325.961 375.809 325.602C375.689 325.242 375.655 325.054 375.552 324.797C374.195 320.47 371.27 316.806 367.351 314.524L359.338 309.918L358.482 309.405C355.941 308.035 353.165 307.158 350.298 306.819C344.191 306.128 338.193 304.684 332.44 302.522C330.689 301.08 329.166 299.384 327.92 297.488C321.825 288.174 320.284 268.159 320.678 258.212L318.966 292.146C312.973 282.73 311.467 263.04 311.843 253.075L306.33 359.451L315.644 356.026V356.3L315.131 364.57Z" fill="#3A61C7"/>
<path d="M377.644 341.553L315.134 364.565L315.579 356.295V356.021L318.986 292.141L320.698 258.206C320.304 268.154 321.845 288.169 327.941 297.483C329.186 299.378 330.71 301.075 332.461 302.516C338.624 307.653 347.87 310.392 359.187 311.933C360.343 312.077 361.487 312.301 362.612 312.601C364.276 313.044 365.88 313.688 367.388 314.518C371.308 316.8 374.233 320.464 375.59 324.791C375.692 325.048 375.761 325.322 375.846 325.596C375.932 325.87 376.086 326.298 376.189 326.675C376.394 327.377 376.566 328.113 376.737 328.883C376.908 329.654 377.011 330.356 377.131 331.126C377.25 331.897 377.336 332.701 377.404 333.523C377.655 336.192 377.735 338.874 377.644 341.553Z" fill="#3A61C7"/>
<path opacity="0.35" d="M367.335 314.521C365.826 313.69 364.222 313.047 362.558 312.603C361.433 312.303 360.289 312.08 359.134 311.935C347.748 310.394 338.588 307.689 332.407 302.519C338.16 304.681 344.158 306.124 350.265 306.816C353.131 307.154 355.908 308.031 358.449 309.401L359.305 309.915L367.335 314.521Z" fill="black"/>
<path d="M316.07 346.715L375.567 324.8C376.518 327.633 377.128 330.571 377.382 333.549L315.557 356.303L316.07 346.715Z" fill="#455A64"/>
<path d="M340.738 228.863C340.868 225.682 340.609 222.496 339.968 219.378C334.009 191.47 317.333 168.561 307.711 153.717C305.999 151.012 302.181 144.848 300.605 143.769C299.661 143.111 298.538 142.758 297.387 142.759C296.23 142.76 295.102 143.112 294.151 143.769C292.593 144.848 288.86 151.046 287.045 153.717C278.176 166.781 260.747 191.47 254.806 219.378C254.159 222.496 253.894 225.681 254.018 228.863L259.445 385.062C259.445 392.835 266.551 400.608 280.779 404.837C291.613 408.039 303.143 408.039 313.977 404.837C328.205 400.608 335.328 392.852 335.328 385.062L340.738 228.863Z" fill="#3A61C7"/>
<path opacity="0.5" d="M340.738 228.863C340.868 225.682 340.609 222.496 339.968 219.378C334.009 191.47 317.333 168.561 307.711 153.717C305.999 151.012 302.181 144.848 300.605 143.769C299.661 143.111 298.538 142.758 297.387 142.759C296.23 142.76 295.102 143.112 294.151 143.769C292.593 144.848 288.86 151.046 287.045 153.717C278.176 166.781 260.747 191.47 254.806 219.378C254.159 222.496 253.894 225.681 254.018 228.863L259.445 385.062C259.445 392.835 266.551 400.608 280.779 404.837C291.613 408.039 303.143 408.039 313.977 404.837C328.205 400.608 335.328 392.852 335.328 385.062L340.738 228.863Z" fill="white"/>
<path opacity="0.5" d="M335.336 385.068L340.746 228.869C340.867 225.688 340.609 222.504 339.976 219.384C334.018 191.476 317.341 168.567 307.719 153.723L306.264 151.446C314.157 171.512 326.638 203.666 327.443 248.679C327.922 275.251 326.022 346.493 324.395 400.443C331.672 396.128 335.336 390.632 335.336 385.068Z" fill="white"/>
<path d="M287.048 153.728C283.795 158.522 279.36 164.925 274.789 172.459C279.292 175.472 285.37 180.095 297.389 180.095C305.55 180.354 313.535 177.688 319.904 172.578C315.487 165.37 311.155 159.018 307.714 153.745C306.001 151.04 302.183 144.876 300.608 143.797C299.664 143.139 298.541 142.786 297.389 142.787C296.233 142.788 295.105 143.14 294.153 143.797C292.595 144.859 288.863 151.057 287.048 153.728Z" fill="#37474F"/>
<path d="M306.264 151.446C308.918 158.16 312.07 166.278 315.136 175.732C316.848 174.705 318.458 173.608 319.914 172.581C316.489 166.963 313.063 161.911 310.152 157.44L307.719 153.724L306.743 152.182L306.264 151.446Z" fill="#455A64"/>
<path d="M284.039 158.136L283.097 159.54L282.19 160.91C281.625 161.731 281.06 162.622 280.478 163.478L279.639 164.745L278.543 166.457C278.252 166.885 277.961 167.33 277.687 167.792L276.557 169.505C275.975 170.446 275.375 171.388 274.845 172.364C277.419 174.216 280.158 175.827 283.029 177.175C289.21 159.745 296.503 142.162 300.15 143.394C299.754 143.178 299.334 143.006 298.9 142.881H298.763C298.329 142.757 297.88 142.694 297.428 142.692C296.272 142.693 295.143 143.046 294.192 143.703C292.634 144.781 288.901 150.979 287.087 153.65L285.015 156.698L284.039 158.136Z" fill="#263238"/>
<path d="M333.889 199.687C334.761 202.794 334.38 206.12 332.827 208.95C330.72 212.666 327.587 215.697 323.804 217.682C319.289 220.202 314.38 221.938 309.285 222.818C303.344 223.897 298.207 228.674 297.951 234.7L297.848 237.183C297.591 243.227 302.299 248.192 308.275 247.302C315.159 246.363 321.81 244.164 327.896 240.813C336.457 235.865 340.652 229.376 340.515 222.904C340.494 221.383 340.234 219.875 339.744 218.435C338.285 212.042 336.327 205.774 333.889 199.687Z" fill="#37474F"/>
<path d="M340.522 222.981C340.385 221.782 340.214 220.584 339.974 219.385C339.803 218.615 339.598 217.861 339.426 217.091C339.152 215.944 338.878 214.797 338.57 213.667L338.211 212.417C337.868 211.218 337.526 210.02 337.166 208.838C336.807 207.657 336.413 206.613 336.036 205.517C335.882 205.089 335.745 204.644 335.608 204.233C335.06 202.726 334.495 201.254 333.896 199.798C334.737 202.876 334.35 206.16 332.817 208.958C330.928 212.317 328.173 215.107 324.839 217.04C325.952 224.59 326.756 232.62 327.167 241.147L327.886 240.787C336.396 235.873 340.608 229.418 340.522 222.981Z" fill="#455A64"/>
<path d="M345.639 400.572C345.639 397.01 337.54 356.621 325.778 346.365C325.202 345.848 324.493 345.502 323.73 345.366C322.968 345.229 322.183 345.309 321.463 345.595C319.971 346.308 318.673 347.371 317.68 348.694C310.084 358.401 306.052 370.423 306.26 382.748V401.445L322.696 407.78C328.966 409.904 335.82 409.467 341.769 406.564C342.888 406.002 343.835 405.149 344.509 404.094C345.184 403.04 345.563 401.823 345.605 400.572H345.639Z" fill="#3A61C7"/>
<path d="M340.289 396.447C341.331 395.915 342.215 395.12 342.855 394.141C343.495 393.162 343.867 392.033 343.936 390.866C343.542 389.017 343.063 386.979 342.515 384.822C342.477 385.973 342.13 387.093 341.509 388.063C340.888 389.033 340.017 389.818 338.988 390.335C333.508 393.006 327.195 393.406 321.422 391.448L306.286 385.626V391.482L322.055 397.543C328.041 399.59 334.592 399.196 340.289 396.447Z" fill="#455A64"/>
<path opacity="0.25" d="M321.515 345.601C320.001 346.303 318.684 347.368 317.68 348.7C310.084 358.415 306.053 370.442 306.26 382.772V401.451L322.696 407.786C324.228 408.345 325.82 408.724 327.439 408.916C324.477 390.87 318.279 350.378 321.515 345.601Z" fill="black"/>
<path d="M325.838 398.542C325.53 396.555 325.204 394.483 324.896 392.359C323.727 392.185 322.58 391.892 321.471 391.485L306.33 385.662V391.52L322.104 397.583C323.313 398.028 324.564 398.35 325.838 398.542Z" fill="#37474F"/>
<path d="M211.485 399.278L196.949 395.512L182.413 399.278C181.335 405.9 181.393 412.657 182.584 419.259C184.485 431.45 192.977 443.657 196.949 443.657C200.921 443.657 209.431 431.45 211.331 419.259C212.524 412.657 212.576 405.899 211.485 399.278Z" fill="#3A61C7"/>
<path opacity="0.7" d="M211.485 399.278L196.949 395.512L182.413 399.278C181.335 405.9 181.393 412.657 182.584 419.259C184.485 431.45 192.977 443.657 196.949 443.657C200.921 443.657 209.431 431.45 211.331 419.259C212.524 412.657 212.576 405.899 211.485 399.278Z" fill="white"/>
<path d="M206.484 401.021H186.582C183.739 418.148 192.868 431.404 196.533 431.404C200.198 431.404 209.413 418.216 206.484 401.021Z" fill="#3A61C7"/>
<path d="M196.529 401.026H199.955C201.525 403.814 202.172 407.028 201.804 410.207C201.393 414.848 198.602 420.877 196.546 420.877C194.491 420.877 191.699 414.848 191.288 410.207C190.911 407.028 191.559 403.811 193.138 401.026H196.564" fill="white"/>
<path d="M209.714 383.008L208.122 376.157H185.856L184.246 383.008C184.188 384.44 184.501 385.864 185.155 387.139C185.809 388.415 186.782 389.499 187.98 390.287C188.938 390.994 189.987 391.57 191.097 392C194.933 393.448 199.165 393.448 203.001 392C204.088 391.567 205.113 390.991 206.049 390.287C207.238 389.495 208.2 388.407 208.843 387.131C209.485 385.856 209.785 384.435 209.714 383.008Z" fill="#3A61C7"/>
<path d="M210.046 384.365L210.2 385.033L210.885 387.979C210.884 389.482 210.511 390.961 209.8 392.285C209.089 393.609 208.061 394.736 206.809 395.566C205.753 396.331 204.601 396.952 203.383 397.416C199.227 398.983 194.642 398.983 190.486 397.416C189.262 396.959 188.109 396.33 187.061 395.549C185.805 394.718 184.775 393.589 184.064 392.261C183.352 390.934 182.981 389.451 182.985 387.945L181.101 395.977C181.184 397.51 181.652 398.997 182.46 400.301C183.268 401.606 184.39 402.687 185.725 403.445C186.974 404.272 188.327 404.928 189.75 405.397C194.417 406.931 199.452 406.931 204.12 405.397C205.511 404.927 206.836 404.276 208.059 403.462C209.395 402.707 210.52 401.626 211.328 400.321C212.136 399.016 212.602 397.528 212.683 395.995L210.046 384.365Z" fill="#3A61C7"/>
<path d="M210.206 385.028L210.052 384.36L209.727 383.007C209.792 384.439 209.484 385.863 208.832 387.139C208.181 388.415 207.208 389.5 206.01 390.286C205.074 390.99 204.049 391.566 202.961 391.999C199.126 393.447 194.894 393.447 191.058 391.999C189.948 391.569 188.899 390.993 187.941 390.286C186.743 389.498 185.77 388.414 185.116 387.138C184.461 385.863 184.148 384.44 184.207 383.007L183.06 387.957C183.056 389.463 183.427 390.946 184.139 392.274C184.85 393.601 185.88 394.731 187.136 395.562C188.184 396.343 189.337 396.971 190.561 397.428C194.717 398.996 199.302 398.996 203.458 397.428C204.676 396.965 205.828 396.343 206.884 395.579C208.136 394.748 209.164 393.621 209.875 392.297C210.586 390.973 210.959 389.494 210.96 387.991L210.206 385.028Z" fill="#455A64"/>
<path opacity="0.15" d="M196.963 390.19C201.69 390.19 208.472 388.683 210.339 385.634L210.202 385.035L210.048 384.367L209.722 383.014L208.13 376.163H185.864L184.254 383.014L183.638 385.652C184.888 388.82 192.287 390.19 196.963 390.19Z" fill="black"/>
<path d="M191.687 101.124C192.172 101.121 192.648 101.257 193.057 101.518C194.943 103.614 196.688 105.833 198.279 108.161C201.96 113.725 209.699 124.735 212.422 136.377C212.724 137.679 212.856 139.014 212.815 140.349C217.541 222.703 214.271 282.355 212.987 375.221C212.987 378.474 210.127 381.779 204.203 383.679C201.959 384.392 199.623 384.778 197.269 384.826C194.923 384.861 192.583 384.567 190.318 383.953C184.308 382.241 181.261 379.091 181.209 375.838C175.953 283.108 170.662 223.611 172.135 141.154C172.058 139.819 172.144 138.479 172.392 137.165C174.652 125.419 181.945 114.119 185.404 108.401C186.909 106.013 188.568 103.725 190.369 101.552C190.769 101.278 191.238 101.124 191.722 101.107L191.687 101.124Z" fill="#455A64"/>
<path d="M204.936 383.406C210.346 381.488 213.034 378.27 212.983 375.222C214.267 282.355 217.537 222.704 212.812 140.35C212.852 139.015 212.72 137.679 212.418 136.378C209.696 124.735 201.957 113.726 198.276 108.162C196.684 105.834 194.94 103.615 193.054 101.519C199.337 116.448 202.625 141.617 203.772 186.801C204.594 218.595 204.85 323.823 204.936 383.406Z" fill="#37474F"/>
<path d="M207.859 153.345C210.102 152.177 211.966 150.396 213.235 148.209C213.115 145.76 212.978 143.295 212.841 140.795C211.559 142.663 209.851 144.2 207.859 145.281C199.298 150.195 185.601 150.195 177.041 145.281C175.11 144.213 173.443 142.727 172.161 140.932V141.206C172.161 143.808 172.161 146.342 172.041 148.928C173.327 150.795 175.041 152.327 177.041 153.396C185.533 158.276 199.35 158.276 207.859 153.345Z" fill="#3A61C7"/>
<path d="M179.162 165.172C180.156 165.811 180.985 166.676 181.58 167.698C182.176 168.719 182.521 169.866 182.587 171.046C182.587 173.204 181.063 174.078 179.162 172.999C178.169 172.358 177.342 171.492 176.747 170.471C176.152 169.45 175.806 168.304 175.736 167.124C175.771 164.983 177.295 164.093 179.162 165.172Z" fill="#3A61C7"/>
<path d="M179.028 179.08C179.965 179.688 180.746 180.51 181.305 181.477C181.865 182.444 182.188 183.53 182.248 184.646C182.248 186.702 180.809 187.524 179.028 186.496C178.094 185.886 177.317 185.063 176.76 184.096C176.204 183.129 175.883 182.044 175.825 180.93C175.825 178.892 177.264 178.052 179.028 179.08Z" fill="#3A61C7"/>
<path d="M179.201 192.984C180.082 193.569 180.816 194.349 181.344 195.264C181.873 196.179 182.183 197.205 182.25 198.259C182.25 200.195 180.88 200.983 179.201 199.972C178.317 199.397 177.581 198.621 177.054 197.707C176.527 196.793 176.224 195.768 176.17 194.714C176.17 192.813 177.523 192.025 179.201 192.984Z" fill="#3A61C7"/>
<path d="M179.575 206.903C180.412 207.446 181.108 208.179 181.608 209.042C182.108 209.905 182.398 210.874 182.452 211.87C182.452 213.702 181.168 214.439 179.575 213.582C178.744 213.039 178.052 212.308 177.555 211.448C177.058 210.589 176.77 209.624 176.715 208.633C176.715 206.732 177.999 206.081 179.575 206.903Z" fill="#3A61C7"/>
<path d="M180.105 220.82C180.886 221.332 181.536 222.02 182.003 222.829C182.47 223.639 182.741 224.546 182.794 225.478C182.794 227.191 181.578 227.893 180.105 227.037C179.321 226.528 178.669 225.84 178.201 225.03C177.734 224.221 177.465 223.312 177.416 222.378C177.416 220.666 178.581 219.963 180.105 220.82Z" fill="#3A61C7"/>
<path d="M180.691 234.734C181.423 235.21 182.033 235.852 182.47 236.608C182.908 237.364 183.161 238.212 183.208 239.085C183.208 240.695 182.078 241.328 180.691 240.54C179.958 240.061 179.348 239.416 178.911 238.657C178.473 237.898 178.221 237.047 178.173 236.173C178.173 234.58 179.303 233.929 180.691 234.734Z" fill="#3A61C7"/>
<path d="M181.259 248.639C181.942 249.08 182.511 249.676 182.918 250.378C183.326 251.081 183.562 251.87 183.605 252.681C183.605 254.189 182.561 254.788 181.259 254.034C180.579 253.592 180.014 252.996 179.609 252.293C179.204 251.591 178.971 250.802 178.93 249.992C178.93 248.502 179.974 247.886 181.259 248.639Z" fill="#3A61C7"/>
<path d="M270.719 389.978L208.226 439.134L199.391 433.997C198.912 415.9 204.785 399.908 217.883 383.027C223.447 375.836 228.566 369.141 233.155 362.806C239.917 353.784 245.973 344.253 251.269 334.299C258.803 319.438 260.669 299.936 260.549 289.68C260.575 289.338 260.575 288.995 260.549 288.653C260.549 288.311 260.549 287.985 260.549 287.677L265.24 289.972L270.719 389.978Z" fill="#3A61C7"/>
<path opacity="0.35" d="M257.964 337.638C252.365 352.653 241.356 369.278 226.717 388.163C213.619 405.062 207.747 421.019 208.226 439.134L199.391 433.997C198.912 415.9 204.785 399.908 217.883 383.027C223.447 375.836 228.566 369.141 233.155 362.806C239.917 353.784 245.973 344.253 251.269 334.299C258.803 319.438 260.669 299.936 260.549 289.68C260.575 289.338 260.575 288.995 260.549 288.653C260.549 288.311 260.549 287.985 260.549 287.677L265.24 289.972C265.583 299.491 264.059 321.27 257.964 337.638Z" fill="black"/>
<path d="M201.444 414.955C200.59 418.507 200.017 422.12 199.731 425.762L208.552 430.901V430.626C208.856 427.1 209.428 423.601 210.265 420.162L201.444 414.955Z" fill="#37474F"/>
<path d="M265.199 289.976C265.575 299.478 264.051 321.274 257.956 337.625C252.357 352.657 241.348 369.282 226.71 388.15C213.612 405.032 207.722 421.023 208.218 439.12L270.712 389.965L265.199 289.976Z" fill="#3A61C7"/>
<path d="M269.797 373.213L210.283 420.092C209.378 423.642 208.771 427.262 208.468 430.913L270.293 382.288L269.797 373.213Z" fill="#455A64"/>
<path d="M482.26 561.366C482.26 555.494 479.928 549.863 475.776 545.712C471.624 541.56 465.993 539.228 460.122 539.228C454.251 539.228 448.62 541.56 444.468 545.712C440.316 549.863 437.984 555.494 437.984 561.366C437.966 561.571 437.966 561.777 437.984 561.982C437.967 562.187 437.967 562.393 437.984 562.598C438.224 565.663 440.381 568.676 444.456 571.022C453.102 576.022 467.142 576.022 475.788 571.022C479.846 568.676 482.003 565.663 482.26 562.598C482.26 562.376 482.26 562.187 482.26 561.982C482.26 561.776 482.277 561.571 482.26 561.366Z" fill="#3A61C7"/>
<path opacity="0.5" d="M482.26 561.366C482.26 555.494 479.928 549.863 475.776 545.712C471.624 541.56 465.993 539.228 460.122 539.228C454.251 539.228 448.62 541.56 444.468 545.712C440.316 549.863 437.984 555.494 437.984 561.366C437.966 561.571 437.966 561.777 437.984 561.982C437.967 562.187 437.967 562.393 437.984 562.598C438.224 565.663 440.381 568.676 444.456 571.022C453.102 576.022 467.142 576.022 475.788 571.022C479.846 568.676 482.003 565.663 482.26 562.598C482.26 562.376 482.26 562.187 482.26 561.982C482.26 561.776 482.277 561.571 482.26 561.366Z" fill="white"/>
<g style="mix-blend-mode:lighten" opacity="0.5">
<path d="M469.649 542.035C466.321 540.426 462.643 539.676 458.951 539.854C455.259 540.033 451.671 541.134 448.514 543.056C445.357 544.979 442.732 547.662 440.879 550.86C439.026 554.058 438.003 557.67 437.906 561.365C437.888 561.57 437.888 561.776 437.906 561.981C437.889 562.186 437.889 562.393 437.906 562.598C438.145 565.662 440.303 568.676 444.378 571.021C447.814 572.899 451.593 574.063 455.49 574.446C449.737 573.47 446.021 567.049 447.802 559.961C449.908 551.777 458.212 539.946 469.649 542.035Z" fill="white"/>
</g>
<g style="mix-blend-mode:lighten" opacity="0.5">
<path d="M459.875 544.808C460.868 547.069 458.967 550.083 455.627 551.556C452.288 553.029 448.776 552.379 447.783 550.118C446.79 547.857 448.691 544.843 452.031 543.387C455.37 541.931 458.899 542.548 459.875 544.808Z" fill="white"/>
</g>
<path d="M18.7391 550.442C18.7391 544.571 21.0714 538.94 25.2231 534.788C29.3748 530.637 35.0057 528.304 40.8771 528.304C46.7485 528.304 52.3793 530.637 56.531 534.788C60.6827 538.94 63.0151 544.571 63.0151 550.442C63.0317 550.647 63.0317 550.853 63.0151 551.059C63.0327 551.264 63.0327 551.47 63.0151 551.675C62.7754 554.74 60.6181 557.753 56.5432 560.116C47.8969 565.098 33.8573 565.098 25.211 560.116C21.1532 557.753 18.9959 554.74 18.7391 551.675C18.7391 551.47 18.7391 551.281 18.7391 551.059C18.7391 550.836 18.7219 550.665 18.7391 550.442Z" fill="#3A61C7"/>
<path opacity="0.5" d="M18.7391 550.442C18.7391 544.571 21.0714 538.94 25.2231 534.788C29.3748 530.637 35.0057 528.304 40.8771 528.304C46.7485 528.304 52.3793 530.637 56.531 534.788C60.6827 538.94 63.0151 544.571 63.0151 550.442C63.0317 550.647 63.0317 550.853 63.0151 551.059C63.0327 551.264 63.0327 551.47 63.0151 551.675C62.7754 554.74 60.6181 557.753 56.5432 560.116C47.8969 565.098 33.8573 565.098 25.211 560.116C21.1532 557.753 18.9959 554.74 18.7391 551.675C18.7391 551.47 18.7391 551.281 18.7391 551.059C18.7391 550.836 18.7219 550.665 18.7391 550.442Z" fill="white"/>
<g style="mix-blend-mode:lighten" opacity="0.5">
<path d="M31.3408 531.111C34.6685 529.502 38.3464 528.753 42.0385 528.931C45.7305 529.109 49.319 530.21 52.476 532.133C55.6331 534.055 58.2581 536.738 60.1111 539.936C61.9642 543.135 62.9863 546.746 63.084 550.442C63.1006 550.647 63.1006 550.853 63.084 551.058C63.1015 551.263 63.1015 551.469 63.084 551.674C62.8443 554.739 60.687 557.752 56.6121 560.115C53.17 561.978 49.3937 563.142 45.5003 563.539C51.2531 562.546 54.9684 556.143 53.2049 549.055C51.0819 540.871 42.7779 528.988 31.3408 531.111Z" fill="white"/>
</g>
<path opacity="0.2" d="M18.7422 551.672C18.7422 551.466 18.7422 551.278 18.7422 551.056C18.7422 550.833 18.7422 550.662 18.7422 550.439C18.8227 547.399 19.5322 544.409 20.8258 541.656C22.1195 538.904 23.9692 536.45 26.2585 534.448C23.8615 536.913 18.5025 546.244 24.3238 553.281C28.1419 557.955 46.3077 564.616 61.2376 556.055C59.9548 557.684 58.3599 559.04 56.5463 560.044C47.9 565.027 33.8604 565.027 25.2141 560.044C21.1563 557.75 18.999 554.737 18.7422 551.672Z" fill="#3A61C7"/>
<g style="mix-blend-mode:lighten" opacity="0.3">
<path d="M41.12 533.904C40.1266 536.165 42.0278 539.179 45.3676 540.652C48.7074 542.125 52.2185 541.474 53.2118 539.213C54.2052 536.953 52.3041 533.938 48.9643 532.465C45.6245 530.992 42.0963 531.643 41.12 533.904Z" fill="white"/>
</g>
<g style="mix-blend-mode:lighten" opacity="0.3">
<path d="M53.939 543.079C53.5904 543.569 53.4019 544.154 53.3994 544.755C53.397 545.357 53.5807 545.944 53.9253 546.436C54.2699 546.929 54.7585 547.303 55.3241 547.507C55.8896 547.71 56.5044 547.734 57.084 547.575C57.6636 547.415 58.1796 547.08 58.5611 546.615C58.9427 546.151 59.171 545.579 59.2149 544.98C59.2588 544.38 59.116 543.782 58.8061 543.267C58.4963 542.751 58.0345 542.345 57.4843 542.103C56.8826 541.772 56.1755 541.689 55.5135 541.871C54.8515 542.053 54.2866 542.487 53.939 543.079Z" fill="white"/>
</g>
<path d="M84.965 548.136C85.1587 539.748 88.6269 531.768 94.6278 525.904C100.629 520.04 108.686 516.757 117.076 516.757C125.467 516.757 133.524 520.04 139.525 525.904C145.526 531.768 148.994 539.748 149.188 548.136C149.188 548.444 149.188 548.718 149.188 549.026C149.188 549.334 149.188 549.625 149.188 549.933C148.828 554.368 145.763 558.734 139.788 562.141C127.255 569.4 106.898 569.4 94.3304 562.141C88.4577 558.717 85.3245 554.368 84.965 549.933C84.9479 549.631 84.9479 549.328 84.965 549.026C84.9479 548.729 84.9479 548.432 84.965 548.136Z" fill="#3A61C7"/>
<path opacity="0.7" d="M84.965 548.136C85.1587 539.748 88.6269 531.768 94.6278 525.904C100.629 520.04 108.686 516.757 117.076 516.757C125.467 516.757 133.524 520.04 139.525 525.904C145.526 531.768 148.994 539.748 149.188 548.136C149.188 548.444 149.188 548.718 149.188 549.026C149.188 549.334 149.188 549.625 149.188 549.933C148.828 554.368 145.763 558.734 139.788 562.141C127.255 569.4 106.898 569.4 94.3304 562.141C88.4577 558.717 85.3245 554.368 84.965 549.933C84.9479 549.631 84.9479 549.328 84.965 549.026C84.9479 548.729 84.9479 548.432 84.965 548.136Z" fill="white"/>
<g style="mix-blend-mode:lighten" opacity="0.3">
<path d="M103.138 520.093C107.966 517.761 113.302 516.674 118.658 516.934C124.014 517.194 129.219 518.791 133.799 521.58C138.379 524.369 142.188 528.26 144.877 532.9C147.566 537.539 149.051 542.778 149.194 548.138C149.194 548.446 149.194 548.72 149.194 549.029C149.194 549.337 149.194 549.628 149.194 549.936C148.835 554.37 145.77 558.736 139.795 562.144C134.815 564.882 129.337 566.594 123.683 567.177C132.004 565.739 137.381 556.442 134.847 546.169C131.867 534.253 119.814 517.029 103.138 520.093Z" fill="white"/>
</g>
<path opacity="0.1" d="M84.965 549.929C84.9479 549.627 84.9479 549.324 84.965 549.022C84.9479 548.725 84.9479 548.428 84.965 548.132C85.0791 543.718 86.1072 539.376 87.9844 535.38C89.8616 531.384 92.5471 527.821 95.8713 524.915C92.447 528.511 84.6054 542.036 93.0463 552.309C98.5936 559.158 124.926 568.763 146.602 556.333C144.732 558.698 142.402 560.661 139.754 562.103C127.221 569.362 106.863 569.362 94.2961 562.103C88.4577 558.781 85.3245 554.364 84.965 549.929Z" fill="#3A61C7"/>
<g style="mix-blend-mode:lighten" opacity="0.5">
<path d="M117.396 524.133C115.958 527.404 118.732 531.789 123.579 533.913C128.426 536.036 133.513 535.112 134.952 531.84C136.391 528.569 133.633 524.184 128.786 522.061C123.939 519.937 118.835 520.862 117.396 524.133Z" fill="white"/>
</g>
<g style="mix-blend-mode:lighten" opacity="0.5">
<path d="M136 537.462C135.501 538.173 135.234 539.022 135.235 539.891C135.237 540.76 135.507 541.607 136.009 542.317C136.511 543.026 137.221 543.563 138.04 543.854C138.859 544.144 139.748 544.175 140.585 543.94C141.422 543.706 142.166 543.218 142.715 542.545C143.264 541.871 143.591 541.044 143.652 540.177C143.712 539.31 143.503 538.445 143.053 537.702C142.603 536.958 141.935 536.372 141.138 536.023C140.265 535.541 139.236 535.421 138.275 535.69C137.313 535.959 136.496 536.596 136 537.462Z" fill="white"/>
</g>
<path d="M56.6847 566.984C56.8734 559.024 60.168 551.454 65.8644 545.891C71.5609 540.328 79.2072 537.213 87.1695 537.213C95.1317 537.213 102.778 540.328 108.474 545.891C114.171 551.454 117.466 559.024 117.654 566.984C117.671 567.269 117.671 567.555 117.654 567.84C117.671 568.12 117.671 568.4 117.654 568.679C117.312 572.908 114.333 577.052 108.734 580.288C96.8345 587.136 77.5044 587.136 65.5879 580.288C60.0063 577.052 57.0272 572.908 56.6847 568.679C56.6676 568.4 56.6676 568.12 56.6847 567.84C56.6677 567.555 56.6677 567.269 56.6847 566.984Z" fill="#3A61C7"/>
<path opacity="0.6" d="M56.6847 566.984C56.8734 559.024 60.168 551.454 65.8644 545.891C71.5609 540.328 79.2072 537.213 87.1695 537.213C95.1317 537.213 102.778 540.328 108.474 545.891C114.171 551.454 117.466 559.024 117.654 566.984C117.671 567.269 117.671 567.555 117.654 567.84C117.671 568.12 117.671 568.4 117.654 568.679C117.312 572.908 114.333 577.052 108.734 580.288C96.8345 587.136 77.5044 587.136 65.5879 580.288C60.0063 577.052 57.0272 572.908 56.6847 568.679C56.6676 568.4 56.6676 568.12 56.6847 567.84C56.6677 567.555 56.6677 567.269 56.6847 566.984Z" fill="white"/>
<g style="mix-blend-mode:lighten" opacity="0.5">
<path d="M73.9453 540.368C78.5263 538.147 83.591 537.111 88.6761 537.353C93.7612 537.596 98.7042 539.11 103.053 541.757C107.401 544.404 111.017 548.1 113.568 552.505C116.119 556.91 117.525 561.885 117.656 566.975C117.673 567.26 117.673 567.546 117.656 567.831C117.674 568.11 117.674 568.39 117.656 568.67C117.314 572.899 114.335 577.042 108.736 580.278C104.005 582.878 98.7998 584.502 93.4295 585.055C101.34 583.685 106.459 574.782 104.028 565.108C101.203 553.791 89.7655 537.44 73.9453 540.368Z" fill="white"/>
</g>
<path opacity="0.15" d="M56.673 568.679C56.6559 568.399 56.6559 568.119 56.673 567.84C56.6559 567.555 56.6559 567.269 56.673 566.984C56.7703 562.8 57.7333 558.682 59.5014 554.89C61.2695 551.097 63.8043 547.712 66.9459 544.948C63.6243 548.373 56.2621 561.196 64.2578 570.973C69.5312 577.41 94.5285 586.605 115.108 574.791C113.348 577.045 111.146 578.915 108.637 580.287C96.7372 587.135 77.4071 587.135 65.4905 580.287C59.9946 577.051 57.0154 572.908 56.673 568.679Z" fill="#3A61C7"/>
<g style="mix-blend-mode:lighten" opacity="0.3">
<path d="M87.4858 544.195C86.1156 547.312 88.7361 551.474 93.3433 553.495C97.9505 555.516 102.78 554.626 104.151 551.526C105.521 548.426 102.883 544.247 98.2759 542.226C93.6687 540.205 88.8388 541.095 87.4858 544.195Z" fill="white"/>
</g>
<path d="M0.00640367 555.631C0.130444 552.164 1.59494 548.881 4.09155 546.472C6.58816 544.063 9.92207 542.717 13.3913 542.717C16.8606 542.717 20.1945 544.063 22.6911 546.472C25.1877 548.881 26.6522 552.164 26.7763 555.631V556.385C26.5958 557.498 26.1435 558.549 25.4593 559.446C24.7751 560.342 23.8802 561.056 22.8541 561.523C19.9207 563.018 16.6751 563.797 13.3828 563.797C10.0904 563.797 6.84486 563.018 3.91142 561.523C2.8885 561.053 1.99709 560.339 1.31599 559.443C0.634902 558.547 0.185108 557.496 0.00640367 556.385C-0.00213456 556.26 -0.00213456 556.134 0.00640367 556.008C-0.00173189 555.883 -0.00173189 555.757 0.00640367 555.631Z" fill="#3A61C7"/>
<path opacity="0.2" d="M0.00640367 555.631C0.130444 552.164 1.59494 548.881 4.09155 546.472C6.58816 544.063 9.92207 542.717 13.3913 542.717C16.8606 542.717 20.1945 544.063 22.6911 546.472C25.1877 548.881 26.6522 552.164 26.7763 555.631V556.385C26.5958 557.498 26.1435 558.549 25.4593 559.446C24.7751 560.342 23.8802 561.056 22.8541 561.523C19.9207 563.018 16.6751 563.797 13.3828 563.797C10.0904 563.797 6.84486 563.018 3.91142 561.523C2.8885 561.053 1.99709 560.339 1.31599 559.443C0.634902 558.547 0.185108 557.496 0.00640367 556.385C-0.00213456 556.26 -0.00213456 556.134 0.00640367 556.008C-0.00173189 555.883 -0.00173189 555.757 0.00640367 555.631Z" fill="white"/>
<g style="mix-blend-mode:lighten" opacity="0.5">
<path d="M7.56836 543.948C9.58019 542.974 11.804 542.52 14.0366 542.627C16.2691 542.734 18.4393 543.398 20.3488 544.56C22.2584 545.722 23.8463 547.343 24.9677 549.277C26.089 551.21 26.7079 553.394 26.768 555.629V556.382C26.5876 557.495 26.1352 558.547 25.451 559.443C24.7668 560.339 23.872 561.053 22.8458 561.52C20.7686 562.658 18.4869 563.374 16.132 563.627C19.5574 563.027 21.8525 559.14 20.7734 554.858C19.5403 549.839 14.522 542.663 7.56836 543.948Z" fill="white"/>
</g>
<g style="mix-blend-mode:lighten" opacity="0.3">
<path d="M13.5145 545.631C12.915 547.002 14.0625 548.834 16.0835 549.708C18.1046 550.581 20.2283 550.221 20.8278 548.851C21.4272 547.481 20.2797 545.666 18.2587 544.775C16.2377 543.884 14.1139 544.278 13.5145 545.631Z" fill="white"/>
</g>
</svg>
