<svg width="84" height="77" viewBox="0 0 84 77" fill="none" xmlns="http://www.w3.org/2000/svg">
<path d="M53.5683 30.0445C57.6129 30.0723 60.873 33.4079 60.8454 37.4899L60.7096 57.5577C60.6754 62.6021 58.6572 67.4262 55.0989 70.9688C51.5405 74.5113 46.7336 76.4821 41.7355 76.4477C36.7373 76.4132 31.9575 74.3763 28.4475 70.785C24.9374 67.1937 22.9847 62.3423 23.0188 57.2979L23.1546 37.2301C23.1823 33.1481 26.4831 29.8577 30.5318 29.8856L53.5683 30.0445V30.0445ZM21.6513 29.8244C20.1309 31.6456 19.2085 33.8986 19.0117 36.2718L18.9635 37.2012L18.8277 57.269C18.8035 60.8482 19.5844 64.2427 20.9959 67.2782C18.5097 67.9311 15.908 67.9982 13.3919 67.4743C10.8759 66.9503 8.51303 65.8494 6.48593 64.2566C4.45882 62.6638 2.82184 60.6219 1.70156 58.2886C0.581279 55.9553 0.0077113 53.3932 0.0252091 50.8005L0.118138 37.0712C0.130769 35.2154 0.834362 33.4321 2.08925 32.0755C3.34414 30.7189 5.05858 29.8881 6.89223 29.748L7.49532 29.7268L21.6513 29.8244V29.8244ZM62.4488 30.1057L76.5797 30.2031C80.6243 30.231 83.8844 33.5666 83.8568 37.6486L83.7638 51.3821C83.7469 53.9731 83.1399 56.5256 81.9899 58.8422C80.8398 61.1588 79.1775 63.1775 77.1313 64.7424C75.0851 66.3074 72.7098 67.3766 70.1889 67.8674C67.6681 68.3583 65.0692 68.2577 62.593 67.5734C63.867 64.9283 64.6572 62.0095 64.8498 58.9174L64.8965 57.5866L65.0323 37.5188C65.0514 34.7087 64.0807 32.1242 62.4446 30.1057L62.4488 30.1057ZM42.2377 0.385106C45.5691 0.408075 48.7549 1.76572 51.0944 4.15937C53.4339 6.55303 54.7355 9.78661 54.7127 13.1488C54.69 16.511 53.3448 19.7263 50.9731 22.0875C48.6014 24.4486 45.3974 25.7622 42.0661 25.7393C38.7348 25.7163 35.5489 24.3586 33.2094 21.965C30.8699 19.5713 29.5684 16.3378 29.5911 12.9756C29.6139 9.61341 30.9591 6.39807 33.3308 4.0369C35.7025 1.67573 38.9064 0.362138 42.2377 0.385106V0.385106ZM69.4242 4.79843C72.2003 4.81758 74.8552 5.94895 76.8048 7.94366C78.7544 9.93837 79.839 12.633 79.82 15.4348C79.8011 18.2366 78.6801 20.9161 76.7036 22.8837C74.7272 24.8514 72.0573 25.946 69.2812 25.9269C66.5051 25.9078 63.8502 24.7764 61.9006 22.7817C59.951 20.787 58.8664 18.0923 58.8854 15.2905C58.9043 12.4887 60.0253 9.80924 62.0017 7.8416C63.9781 5.87395 66.6481 4.77929 69.4242 4.79843ZM14.9941 4.42316C17.7702 4.4423 20.4251 5.57367 22.3746 7.56838C24.3242 9.5631 25.4089 12.2578 25.3899 15.0596C25.3709 17.8614 24.2499 20.5408 22.2735 22.5085C20.2971 24.4761 17.6272 25.5708 14.8511 25.5516C12.0749 25.5325 9.42008 24.4011 7.47048 22.4064C5.52089 20.4117 4.43627 17.717 4.45523 14.9152C4.4742 12.1134 5.59519 9.43397 7.57161 7.46632C9.54802 5.49868 12.218 4.40402 14.9941 4.42316V4.42316Z" fill="#3A61C7"/>
</svg>
