<svg width="85" height="84" viewBox="0 0 85 84" fill="none" xmlns="http://www.w3.org/2000/svg">
<path fill-rule="evenodd" clip-rule="evenodd" d="M37.3265 1.81303C39.3478 0.643103 41.6609 0.0331538 44.0146 0.0493819C46.3684 0.0656102 48.673 0.707396 50.6782 1.90509L55.3999 4.75296C62.0246 8.74597 69.594 9.6771 77.1983 10.6152C79.6563 10.9191 82.1166 11.2208 84.5507 11.6285C84.5507 11.6285 84.5762 15.7726 84.5076 17.652L83.9118 33.8055C83.3991 47.6594 76.9636 60.754 66.0119 70.2271C60.8451 74.6946 55.5043 78.7271 49.3769 82.0651C47.5713 83.0407 45.5504 83.5809 43.4844 83.6402C41.4184 83.6995 39.3677 83.2761 37.5048 82.4058C30.4775 79.1036 24.2636 74.935 18.5978 69.9002C7.77537 60.277 1.51775 47.0949 1.19496 33.2352L0.819888 17.127C0.774628 15.2174 0.861011 11.0515 0.861011 11.0515C2.84074 10.8392 4.85746 10.6655 6.89046 10.492C15.8631 9.72691 25.1339 8.93674 32.7654 4.47942L37.3289 1.81305L37.3265 1.81303ZM37.8598 36.161L37.9668 20.3453L47.276 20.4094L47.1689 36.2251L63.46 36.3375L63.3989 45.375L47.1078 45.2627L47.0007 61.0784L37.6915 61.0142L37.7986 45.1985L21.5075 45.0862L21.5687 36.0486L37.8598 36.161Z" fill="#3A61C7"/>
</svg>
